HIERARCHY
ROOT hip
{
  OFFSET 0 0 0
  CHANNELS 6 Xposition Yposition Zposition Zrotation Yrotation Xrotation
  JOINT abdomen
  {
    OFFSET 0 20.6881 -0.73152
    CHANNELS 3 Zrotation Xrotation Yrotation
    JOINT chest
    {
      OFFSET 0 11.7043 -0.48768
      CHANNELS 3 Zrotation Xrotation Yrotation
      JOINT neck
      {
        OFFSET 0 22.1894 -2.19456
        CHANNELS 3 Zrotation Xrotation Yrotation
        JOINT head
        {
          OFFSET -0.24384 7.07133 1.2192
          CHANNELS 3 Zrotation Xrotation Yrotation
          JOINT leftEye
          {
            OFFSET 4.14528 8.04674 8.04672
            CHANNELS 3 Zrotation Xrotation Yrotation
            End Site
            {
              OFFSET 1 0 0
            }
          }
          JOINT rightEye
          {
            OFFSET -3.6576 8.04674 8.04672
            CHANNELS 3 Zrotation Xrotation Yrotation
            End Site
            {
              OFFSET 1 0 0
            }
          }
        }
      }
      JOINT rCollar
      {
        OFFSET -2.68224 19.2634 -4.8768
        CHANNELS 3 Zrotation Xrotation Yrotation
        JOINT rShldr
        {
          OFFSET -8.77824 -1.95073 1.46304
          CHANNELS 3 Zrotation Xrotation Yrotation
          JOINT rForeArm
          {
            OFFSET -28.1742 -1.7115 0.48768
            CHANNELS 3 Zrotation Xrotation Yrotation
            JOINT rHand
            {
              OFFSET -22.5879 0.773209 7.07136
              CHANNELS 3 Zrotation Xrotation Yrotation
              JOINT rThumb1
              {
                OFFSET -1.2192 -0.487915 3.41376
                CHANNELS 3 Zrotation Xrotation Yrotation
                JOINT rThumb2
                {
                  OFFSET -3.37035 -0.52449 3.41376
                  CHANNELS 3 Zrotation Xrotation Yrotation
                  End Site
                  {
                    OFFSET -1.78271 -1.18214 1.43049
                  }
                }
              }
              JOINT rIndex1
              {
                OFFSET -7.75947 0.938293 5.60832
                CHANNELS 3 Zrotation Xrotation Yrotation
                JOINT rIndex2
                {
                  OFFSET -2.54057 -0.884171 1.56538
                  CHANNELS 3 Zrotation Xrotation Yrotation
                  End Site
                  {
                    OFFSET -1.62519 -0.234802 1.16502
                  }
                }
              }
              JOINT rMid1
              {
                OFFSET -8.24714 1.18213 3.41376
                CHANNELS 3 Zrotation Xrotation Yrotation
                JOINT rMid2
                {
                  OFFSET -3.10165 -0.590103 1.0647
                  CHANNELS 3 Zrotation Xrotation Yrotation
                  End Site
                  {
                    OFFSET -2.48547 -0.328903 0.83742
                  }
                }
              }
              JOINT rRing1
              {
                OFFSET -8.82822 0.546677 1.51678
                CHANNELS 3 Zrotation Xrotation Yrotation
                JOINT rRing2
                {
                  OFFSET -2.60934 -0.819778 -0.0198488
                  CHANNELS 3 Zrotation Xrotation Yrotation
                  End Site
                  {
                    OFFSET -2.33842 -0.294052 0.168128
                  }
                }
              }
              JOINT rPinky1
              {
                OFFSET -8.27202 -0.0477905 -0.4584
                CHANNELS 3 Zrotation Xrotation Yrotation
                JOINT rPinky2
                {
                  OFFSET -1.82734 -0.647385 -0.700984
                  CHANNELS 3 Zrotation Xrotation Yrotation
                  End Site
                  {
                    OFFSET -1.69225 -0.51767 -0.607171
                  }
                }
              }
            }
          }
        }
      }
      JOINT lCollar
      {
        OFFSET 2.68224 19.2634 -4.8768
        CHANNELS 3 Zrotation Xrotation Yrotation
        JOINT lShldr
        {
          OFFSET 8.77824 -1.95073 1.46304
          CHANNELS 3 Zrotation Xrotation Yrotation
          JOINT lForeArm
          {
            OFFSET 28.1742 -1.7115 0.48768
            CHANNELS 3 Zrotation Xrotation Yrotation
            JOINT lHand
            {
              OFFSET 22.5879 0.773209 7.07136
              CHANNELS 3 Zrotation Xrotation Yrotation
              JOINT lThumb1
              {
                OFFSET 1.2192 -0.487915 3.41376
                CHANNELS 3 Zrotation Xrotation Yrotation
                JOINT lThumb2
                {
                  OFFSET 3.37035 -0.52449 3.41376
                  CHANNELS 3 Zrotation Xrotation Yrotation
                  End Site
                  {
                    OFFSET 1.78271 -1.18214 1.43049
                  }
                }
              }
              JOINT lIndex1
              {
                OFFSET 7.75947 0.938293 5.60832
                CHANNELS 3 Zrotation Xrotation Yrotation
                JOINT lIndex2
                {
                  OFFSET 2.54057 -0.884171 1.56538
                  CHANNELS 3 Zrotation Xrotation Yrotation
                  End Site
                  {
                    OFFSET 1.62519 -0.234802 1.16502
                  }
                }
              }
              JOINT lMid1
              {
                OFFSET 8.24714 1.18213 3.41376
                CHANNELS 3 Zrotation Xrotation Yrotation
                JOINT lMid2
                {
                  OFFSET 3.10165 -0.590103 1.0647
                  CHANNELS 3 Zrotation Xrotation Yrotation
                  End Site
                  {
                    OFFSET 2.48547 -0.328903 0.83742
                  }
                }
              }
              JOINT lRing1
              {
                OFFSET 8.82822 0.546677 1.51678
                CHANNELS 3 Zrotation Xrotation Yrotation
                JOINT lRing2
                {
                  OFFSET 2.60934 -0.819778 -0.0198488
                  CHANNELS 3 Zrotation Xrotation Yrotation
                  End Site
                  {
                    OFFSET 2.33842 -0.294052 0.168128
                  }
                }
              }
              JOINT lPinky1
              {
                OFFSET 8.27202 -0.0477905 -0.4584
                CHANNELS 3 Zrotation Xrotation Yrotation
                JOINT lPinky2
                {
                  OFFSET 1.82734 -0.647385 -0.700984
                  CHANNELS 3 Zrotation Xrotation Yrotation
                  End Site
                  {
                    OFFSET 1.69225 -0.51767 -0.607171
                  }
                }
              }
            }
          }
        }
      }
    }
  }
  JOINT rButtock
  {
    OFFSET -8.77824 4.35084 1.2192
    CHANNELS 3 Zrotation Xrotation Yrotation
    JOINT rThigh
    {
      OFFSET 0 -1.70687 -2.19456
      CHANNELS 3 Zrotation Xrotation Yrotation
      JOINT rShin
      {
        OFFSET 0 -36.8199 0.73152
        CHANNELS 3 Zrotation Xrotation Yrotation
        JOINT rFoot
        {
          OFFSET 0.73152 -45.1104 -5.12064
          CHANNELS 3 Zrotation Xrotation Yrotation
          End Site
          {
            OFFSET -1.1221 -3.69964 12.103
          }
        }
      }
    }
  }
  JOINT lButtock
  {
    OFFSET 8.77824 4.35084 1.2192
    CHANNELS 3 Zrotation Xrotation Yrotation
    JOINT lThigh
    {
      OFFSET 0 -1.70687 -2.19456
      CHANNELS 3 Zrotation Xrotation Yrotation
      JOINT lShin
      {
        OFFSET 0 -36.8199 0.73152
        CHANNELS 3 Zrotation Xrotation Yrotation
        JOINT lFoot
        {
          OFFSET -0.73152 -45.1104 -5.12064
          CHANNELS 3 Zrotation Xrotation Yrotation
          End Site
          {
            OFFSET 1.1221 -3.69964 12.103
          }
        }
      }
    }
  }
}
MOTION
Frames:	4
Frame Time:	0.00833333
57.0597 85.5069 -80.9118 0.0 0.0 0.0 2.23578 -0.000461034 0.0604486 0.615859 0.0089706 0.106601 3.45579e-14 -1.59028e-15 -1.73937e-16 1.03719e-13 -6.36111e-15 -5.97907e-16 -0.0 0.0 0.0 -0.0 0.0 0.0 1.73919e-14 -1.77043e-16 1.98785e-16 3.65907e-13 -3.6154e-15 -3.97569e-16 6.29725e-12 -2.01091e-12 -1.11319e-13 7.21472e-11 1.22019e-12 -2.92611e-13 1.70186e-10 -1.71748e-12 -8.81014e-13 2.93908e-10 -2.96428e-12 -1.52985e-12 1.7019e-10 -1.71591e-12 -8.96916e-13 7.73091 5.47488 0.417314 1.70186e-10 -1.7174e-12 -8.81014e-13 2.90554 0.965183 0.102902 1.70191e-10 -1.7176e-12 -8.79423e-13 10.2786 0.731801 0.0259123 1.70173e-10 -1.71392e-12 -8.74653e-13 2.22167 -0.733487 -0.20892 1.72972e-14 -1.76266e-16 -3.47873e-16 3.62658e-13 -3.60918e-15 -1.59028e-15 6.31136e-12 1.75726e-12 -8.5875e-14 7.2165e-11 -2.56107e-12 -2.98972e-13 1.70247e-10 -1.74401e-12 -8.74653e-13 2.94015e-10 -3.01835e-12 -1.50758e-12 1.70244e-10 -1.74294e-12 -8.5875e-13 -7.73091 5.47488 -0.417314 1.70247e-10 -1.74434e-12 -8.74653e-13 -2.90554 0.965183 -0.102902 1.70242e-10 -1.74424e-12 -8.72267e-13 -10.2786 0.731801 -0.0259123 1.70253e-10 -1.74175e-12 -8.84194e-13 -2.22167 -0.733487 0.20892 -2.03217e-16 0.0 -3.88251e-19 2.20874 -7.80138 -0.224035 0.00523622 8.55911 0.135994 -0.545983 -0.766324 0.0459369 2.03217e-16 0.0 3.88251e-19 1.18686 -1.92859 -0.00258996 0.0090693 -2.07858 0.0747891 0.51064 3.99848 -0.140112
57.5494 85.1893 -85.3465 -0.5863 0.783 3.5725 2.46383 -4.76265 -0.211572 0.21541 -0.190222 0.0518407 -0.35068 3.35103 -0.878447 1.32701 -3.40714 -1.59541 -0.0 0.0 0.0 -0.0 0.0 0.0 2.58953e-14 -1.34473e-14 -1.10135e-14 -10.0639 -21.1112 6.48213 -2.73495 -1.04435 4.46176 0.00720224 1.88267 0.264076 -1.12443e-10 -1.38701e-10 -1.39748e-10 -1.95435e-10 -2.40311e-10 -2.40346e-10 -1.12438e-10 -1.387e-10 -1.39768e-10 7.73091 5.47488 0.417314 -1.12443e-10 -1.38701e-10 -1.39748e-10 2.90554 0.965183 0.102902 -1.12436e-10 -1.38701e-10 -1.39746e-10 10.2786 0.731801 0.0259123 -1.12453e-10 -1.38698e-10 -1.39742e-10 2.22167 -0.733487 -0.20892 2.5837e-14 -1.34464e-14 -1.14934e-14 12.055 -19.5352 -8.31095 2.90849 -1.13717 -4.72338 -0.000240412 -0.387787 0.0544964 3.77873e-10 -1.43053e-10 2.4649e-10 6.53261e-10 -2.47291e-10 4.26303e-10 3.7787e-10 -1.43052e-10 2.46505e-10 -7.73091 5.47488 -0.417314 3.77873e-10 -1.43053e-10 2.46491e-10 -2.90554 0.965183 -0.102902 3.77866e-10 -1.43053e-10 2.46495e-10 -10.2786 0.731801 -0.0259123 3.77877e-10 -1.43051e-10 2.46485e-10 -2.22167 -0.733487 0.20892 -2.03217e-16 0.0 -3.88251e-19 1.99581 -7.11345 -0.0596094 0.0080546 10.0574 0.166809 -0.42708 -5.43055 -1.84002 2.03217e-16 0.0 3.88251e-19 2.51337 -4.88228 -0.793342 0.0273905 5.2898 -0.0182576 0.0940954 -1.60695 -2.7435
57.5502 85.1845 -85.349 -0.5772 0.7714 3.5952 2.65551 -9.79801 -0.505874 -0.207433 -0.400088 -0.00630216 -0.615764 6.89071 -1.81772 2.5378 -6.99589 -3.30003 -0.0 0.0 0.0 -0.0 0.0 0.0 3.63758e-14 -2.79075e-14 -2.33479e-14 -13.9013 -42.4172 16.9607 -5.45014 -2.12737 9.18359 -0.00409493 3.87348 0.544289 -4.28914e-10 -3.02076e-10 -3.01989e-10 -7.43423e-10 -5.23366e-10 -5.19404e-10 -4.28909e-10 -3.02075e-10 -3.02015e-10 7.73091 5.47488 0.417314 -4.28914e-10 -3.02076e-10 -3.01989e-10 2.90554 0.965183 0.102902 -4.28905e-10 -3.02077e-10 -3.01988e-10 10.2786 0.731801 0.0259123 -4.28922e-10 -3.02074e-10 -3.01984e-10 2.22167 -0.733487 -0.20892 3.63569e-14 -2.79065e-14 -2.37579e-14 17.1989 -38.6686 -20.8087 5.77883 -2.31287 -9.72062 0.000360546 -0.818383 0.115018 6.16361e-10 -3.01115e-10 5.33543e-10 1.06589e-09 -5.20511e-10 9.22747e-10 6.16358e-10 -3.01115e-10 5.33557e-10 -7.73091 5.47488 -0.417314 6.16361e-10 -3.01115e-10 5.33544e-10 -2.90554 0.965183 -0.102902 6.16352e-10 -3.01115e-10 5.33549e-10 -10.2786 0.731801 -0.0259123 6.16364e-10 -3.01114e-10 5.33543e-10 -2.22167 -0.733487 0.20892 -2.03217e-16 0.0 -3.88251e-19 1.76705 -6.38507 0.114553 0.00921203 11.6391 0.19977 -0.639982 -10.3426 -3.88067 2.03217e-16 0.0 3.88251e-19 3.8276 -8.00218 -1.63784 0.0732251 13.0787 -0.119424 -0.903035 -7.50158 -5.54019
57.5575 85.1814 -85.3501 -0.566 0.7644 3.6126 2.78077 -14.2859 -0.777465 -0.586631 -0.588606 -0.0576845 -0.739814 10.0435 -2.67181 3.40478 -10.1895 -4.85453 -0.0 0.0 0.0 -0.0 0.0 0.0 4.2902e-14 -3.99878e-14 -3.34381e-14 -5.01296 -58.4282 36.4792 -7.72125 -3.05715 13.4025 -0.0306712 5.64754 0.795664 -6.77701e-10 -4.12668e-10 -4.17481e-10 -1.17412e-09 -7.15003e-10 -7.17979e-10 -6.77695e-10 -4.12668e-10 -4.17511e-10 7.73091 5.47488 0.417314 -6.777e-10 -4.12668e-10 -4.17481e-10 2.90554 0.965183 0.102902 -6.7769e-10 -4.12669e-10 -4.1748e-10 10.2786 0.731801 0.0259123 -6.77707e-10 -4.12668e-10 -4.17477e-10 2.22167 -0.733487 -0.20892 4.29168e-14 -3.99867e-14 -3.37845e-14 10.8091 -51.9639 -40.3046 8.16856 -3.3189 -14.1917 0.00149219 -1.16336 0.163519 7.93125e-10 -4.2567e-10 7.4122e-10 1.37175e-09 -7.35836e-10 1.28192e-09 7.93121e-10 -4.2567e-10 7.41233e-10 -7.73091 5.47488 -0.417314 7.93125e-10 -4.2567e-10 7.41222e-10 -2.90554 0.965183 -0.102902 7.93114e-10 -4.2567e-10 7.41228e-10 -10.2786 0.731801 -0.0259123 7.93126e-10 -4.25669e-10 7.41224e-10 -2.22167 -0.733487 0.20892 -2.03217e-16 0.0 -3.88251e-19 1.55805 -5.73742 0.267812 0.00871791 13.054 0.229716 -1.13558 -14.6956 -5.77672 2.03217e-16 0.0 3.88251e-19 4.91792 -10.7818 -2.40876 0.138772 20.0264 -0.217149 -2.29116 -12.6981 -8.14832
